<?xml version="1.0" standalone="no"?>
<!DOCTYPE svg PUBLIC "-//W3C//DTD SVG 20010904//EN"
 "http://www.w3.org/TR/2001/REC-SVG-20010904/DTD/svg10.dtd">
<svg version="1.0" xmlns="http://www.w3.org/2000/svg"
 width="600.000000pt" height="600.000000pt" viewBox="0 0 1200.000000 1200.000000"
 preserveAspectRatio="xMidYMid meet">
<metadata>
Created by potrace 1.16, written by Peter Selinger 2001-2019
</metadata>
<g transform="translate(0.000000,1200.000000) scale(0.100000,-0.100000)"
fill="#000080" stroke="none">
<path d="M4895 11938 c-3 -7 -54 -312 -115 -678 -61 -365 -112 -665 -113 -666
-1 0 -58 -18 -127 -38 -185 -55 -455 -166 -686 -281 -126 -62 -209 -98 -217
-93 -8 4 -88 60 -180 125 -227 162 -516 365 -662 468 -44 30 -115 80 -158 110
-42 30 -82 55 -88 55 -5 0 -164 -152 -352 -337 -590 -583 -988 -975 -1110
-1093 -64 -63 -115 -119 -113 -125 3 -9 78 -113 594 -824 l199 -275 -93 -190
c-129 -267 -233 -537 -309 -798 -12 -44 -22 -59 -38 -63 -12 -3 -175 -28 -362
-55 -187 -28 -446 -66 -575 -85 -129 -20 -270 -41 -312 -47 l-78 -11 0 -1107
0 -1106 582 -98 c321 -54 624 -105 674 -113 l92 -16 17 -66 c53 -200 177 -509
315 -782 l88 -175 -57 -80 c-32 -43 -100 -140 -152 -214 -157 -221 -386 -546
-492 -694 l-98 -140 779 -779 780 -780 557 398 c307 219 563 398 569 399 6 0
90 -38 186 -86 266 -131 560 -247 798 -313 34 -10 62 -21 62 -25 0 -8 198
-1194 206 -1233 l6 -27 1113 0 1113 0 5 22 c3 13 52 303 109 645 l103 623 150
49 c257 85 391 140 676 278 l197 95 313 -223 c173 -122 423 -301 557 -396 133
-95 248 -173 255 -173 7 0 360 349 785 776 l772 775 -42 62 c-23 34 -103 148
-178 252 -74 105 -205 288 -290 408 -85 120 -186 261 -223 312 l-68 94 92 183
c119 238 198 425 260 617 28 86 56 172 63 191 l12 35 179 27 c99 14 380 56
625 92 245 37 460 69 478 72 l32 6 0 1109 c0 774 -3 1109 -11 1109 -5 0 -305
49 -664 110 -360 61 -658 110 -663 110 -5 0 -14 23 -22 52 -63 247 -213 617
-364 894 l-43 81 54 74 c30 41 83 115 119 164 35 50 111 155 169 235 58 80
138 190 177 245 39 55 101 141 138 190 36 50 83 113 104 142 l37 52 -328 333
c-180 183 -463 470 -629 638 -165 168 -368 374 -451 459 l-150 155 -489 -339
c-269 -186 -522 -361 -561 -388 l-73 -50 -197 96 c-267 129 -530 235 -743 298
-41 12 -77 23 -79 25 -2 2 -54 302 -115 666 l-111 663 -1103 3 c-877 2 -1104
0 -1107 -10z m1430 -3733 c940 -141 1709 -856 1914 -1781 70 -315 69 -698 -4
-1015 -119 -517 -422 -988 -840 -1306 -317 -240 -649 -382 -1055 -448 -132
-22 -430 -30 -565 -16 -344 37 -686 152 -970 326 -565 345 -948 910 -1066
1570 -27 151 -37 496 -20 643 79 640 399 1199 909 1585 351 266 725 409 1207
461 81 8 383 -3 490 -19z"/>
</g>
</svg>
