<?xml version="1.0" standalone="no"?>
<!DOCTYPE svg PUBLIC "-//W3C//DTD SVG 20010904//EN"
 "http://www.w3.org/TR/2001/REC-SVG-20010904/DTD/svg10.dtd">
<svg version="1.0" xmlns="http://www.w3.org/2000/svg"
 width="840.000000pt" height="660.000000pt" viewBox="0 0 840.000000 660.000000"
 preserveAspectRatio="xMidYMid meet">
<metadata>
Created by potrace 1.16, written by Peter Selinger 2001-2019
</metadata>
<g transform="translate(0.000000,660.000000) scale(0.100000,-0.100000)"
fill="#8B4513" stroke="none">
<path d="M4010 6294 c-8 -2 -58 -8 -110 -12 l-95 -7 -73 -400 c-40 -220 -74
-401 -76 -402 -1 -2 -48 -16 -104 -33 -135 -40 -232 -79 -378 -152 l-121 -60
-327 236 -328 236 -76 -63 c-104 -84 -317 -293 -407 -398 l-73 -86 228 -333
229 -334 -30 -51 c-63 -104 -149 -295 -193 -427 -25 -75 -46 -144 -46 -151 0
-19 20 -15 -414 -83 -347 -54 -379 -61 -386 -80 -27 -69 -35 -632 -11 -722 l7
-27 395 -70 394 -71 22 -84 c47 -178 132 -384 222 -538 24 -42 39 -77 35 -85
-4 -6 -111 -153 -236 -326 -196 -269 -227 -316 -216 -330 132 -172 497 -522
530 -508 7 3 159 106 338 230 l325 224 50 -29 c161 -95 445 -208 602 -238 l62
-12 7 -47 c4 -25 32 -203 63 -396 l56 -350 105 -8 c156 -12 627 6 645 25 3 3
34 162 70 354 36 192 70 372 76 401 l10 52 87 27 c174 53 376 145 523 240 l66
42 322 -235 c321 -233 323 -235 344 -216 160 135 320 302 458 479 l47 60 -167
240 c-91 133 -197 286 -234 341 l-69 100 40 79 c81 162 165 401 187 531 l6 41
67 12 c37 6 216 34 397 63 l330 52 8 110 c16 208 -19 660 -52 673 -8 3 -189
37 -403 76 l-390 71 -27 85 c-40 121 -114 284 -178 392 -31 51 -56 98 -56 103
0 6 100 147 222 314 123 167 228 312 234 321 9 15 -3 33 -70 111 -45 52 -132
144 -195 205 -109 107 -281 254 -297 254 -4 0 -156 -102 -337 -226 -181 -125
-334 -228 -339 -230 -6 -3 -65 22 -130 54 -137 68 -231 105 -359 142 l-90 26
-62 393 c-34 216 -64 395 -68 398 -15 15 -546 40 -586 27z m390 -2169 c36 -9
110 -39 165 -66 151 -74 274 -189 353 -329 263 -468 31 -1038 -488 -1202 -65
-20 -95 -23 -230 -23 -135 0 -165 3 -230 23 -278 88 -474 284 -562 562 -20 65
-23 95 -23 230 0 135 3 165 23 230 50 160 122 273 248 388 111 103 274 181
429 206 56 9 250 -3 315 -19z"/>
</g>
</svg>
