<?xml version="1.0" standalone="no"?>
<!DOCTYPE svg PUBLIC "-//W3C//DTD SVG 20010904//EN"
 "http://www.w3.org/TR/2001/REC-SVG-20010904/DTD/svg10.dtd">
<svg version="1.0" xmlns="http://www.w3.org/2000/svg"
 width="512.000000pt" height="512.000000pt" viewBox="0 0 512.000000 512.000000"
 preserveAspectRatio="xMidYMid meet">
<metadata>
Created by potrace 1.16, written by Peter Selinger 2001-2019
</metadata>
<g transform="translate(0.000000,512.000000) scale(0.100000,-0.100000)"
fill="#B22222" stroke="none">
<path d="M2259 4612 c-16 -19 -47 -105 -93 -264 l-69 -235 -56 -18 c-31 -10
-99 -38 -153 -62 l-96 -45 -233 126 c-127 69 -237 126 -243 126 -12 0 -456
-440 -456 -452 0 -3 56 -110 125 -236 l125 -229 -44 -94 c-24 -52 -54 -122
-66 -156 l-23 -63 -96 -29 c-53 -16 -161 -49 -240 -72 -89 -27 -155 -52 -173
-67 l-28 -24 0 -271 c0 -150 3 -281 6 -293 5 -18 41 -31 237 -89 128 -37 242
-71 253 -76 16 -6 29 -30 49 -91 15 -46 47 -125 71 -177 l44 -94 -131 -240
-130 -241 203 -203 c111 -112 208 -203 215 -203 6 0 115 56 241 125 l230 125
96 -46 c53 -25 134 -58 179 -73 l82 -28 61 -204 c34 -112 69 -230 78 -262 l17
-57 294 0 295 0 24 38 c13 20 54 139 91 264 l68 227 71 27 c39 15 113 46 164
70 l93 43 230 -125 c147 -79 237 -123 248 -119 27 8 441 431 441 450 0 9 -56
120 -125 246 l-126 230 40 87 c22 48 53 121 68 162 l29 75 236 70 c136 40 245
78 257 89 20 19 21 28 21 316 l0 297 -192 56 c-106 32 -223 66 -259 77 l-66
20 -28 78 c-15 42 -47 120 -72 173 l-44 95 125 231 c69 127 126 236 126 241 0
12 -399 402 -411 402 -4 0 -112 -57 -240 -126 l-232 -126 -86 40 c-47 22 -122
52 -166 68 -44 15 -83 30 -88 34 -4 3 -40 118 -81 256 l-74 249 -295 3 -295 2
-23 -28z m474 -1356 c264 -73 480 -295 547 -560 27 -107 27 -265 0 -369 -20
-81 -71 -191 -119 -261 -139 -198 -424 -314 -682 -276 -316 46 -573 276 -651
582 -17 68 -20 103 -16 212 4 114 8 142 35 219 40 114 84 187 159 263 94 95
227 167 369 200 78 18 279 12 358 -10z"/>
</g>
</svg>
